<svg width="24" height="24" viewBox="0 0 24 24" fill="none" xmlns="http://www.w3.org/2000/svg">
<path d="M23.6407 7.85047C23.5958 7.85047 23.5958 7.80561 23.5509 7.80561C20.3177 5.56262 17.0844 3.31963 13.8511 1.07664C13.4021 0.762617 12.9081 0.448598 12.459 0.134579C12.2345 -0.0448598 11.7854 -0.0448598 11.5609 0.134579C8.19293 2.46729 4.82495 4.8 1.45696 7.13271C0.962994 7.49159 0.0648649 7.89533 0.0199584 8.56822C-0.024948 9.01682 0.0199584 9.51028 0.0199584 9.95888C0.0199584 12.4262 0.0199584 14.8935 0.0199584 17.4056C0.0199584 19.2897 0.0199584 21.2187 0.0199584 23.1028C0.0199584 23.5963 0.424116 24 0.918087 24C3.43285 24 5.94761 24 8.41746 24C12.3692 24 16.3659 24 20.3177 24C21.2607 24 22.1588 24 23.1019 24C23.5958 24 24 23.5963 24 23.1028C24 18.886 24 14.6692 24 10.4075C24 9.77944 24 9.19626 24 8.56822C24 8.20935 23.8653 7.98505 23.6407 7.85047ZM15.6025 22.1607C11.6507 22.1607 7.65405 22.1607 3.70229 22.1607C3.0736 22.1607 2.44491 22.1607 1.81622 22.1607C1.81622 18.2131 1.81622 14.3103 1.81622 10.3626C1.81622 9.91402 1.81622 9.46542 1.81622 9.01682C4.91476 6.86355 8.0133 4.75514 11.0669 2.60187C11.3813 2.37757 11.6956 2.15327 12.01 1.97383C15.1085 4.1271 18.1622 6.23551 21.2607 8.38879C21.5751 8.61308 21.8894 8.83738 22.2037 9.06168C22.2037 13.1439 22.2037 17.2262 22.2037 21.2636C22.2037 21.5776 22.2037 21.8916 22.2037 22.2056C20.0033 22.1607 17.8029 22.1607 15.6025 22.1607Z" fill="white"/>
<path d="M8.59711 7.71582C6.84576 7.71582 5.58838 10.0934 5.58838 11.7083C5.58838 13.0541 6.48651 14.2205 7.69898 14.5794C7.69898 16.1943 7.69898 17.8093 7.69898 19.4242C7.69898 19.6934 7.69898 19.9625 7.69898 20.2317C7.69898 20.7252 8.10314 21.1289 8.59711 21.1289C9.09108 21.1289 9.49524 20.7252 9.49524 20.2317C9.49524 18.3476 9.49524 16.5083 9.49524 14.6242C9.49524 14.6242 9.49524 14.6242 9.49524 14.5794C10.7077 14.1756 11.6058 13.0541 11.6058 11.7083C11.6058 10.1382 10.3485 7.71582 8.59711 7.71582ZM8.59711 12.9644C7.92351 12.9644 7.38464 12.4261 7.38464 11.7532C7.38464 10.8111 8.14805 9.55507 8.59711 9.55507C9.04617 9.55507 9.80958 10.8111 9.80958 11.7532C9.80958 12.3812 9.27071 12.9644 8.59711 12.9644Z" fill="white"/>
<path d="M17.3089 7.94012C17.1742 7.80554 16.9496 7.76068 16.77 7.71582C15.9168 7.71582 15.0187 7.94012 14.3451 8.38872C13.4469 8.97189 12.7733 9.91395 12.5039 10.9457C12.5039 10.9457 12.5039 10.9457 12.5039 10.9906C12.5039 11.0354 12.5039 11.0803 12.5039 11.1252V11.17C12.5039 12.6504 12.5039 14.1308 12.5039 15.5663C12.5039 15.7906 12.5039 15.97 12.5039 16.1943C12.5039 16.6429 12.9081 17.0915 13.402 17.0915C14.2553 17.0915 15.0636 17.0915 15.9168 17.0915C15.9168 17.6747 15.9168 18.2579 15.9168 18.8411C15.9168 19.3345 15.9168 19.828 15.9168 20.3214C15.9168 21.4878 17.7131 21.4878 17.7131 20.3214C17.7131 16.8672 17.7131 13.4579 17.7131 10.0037C17.7131 9.51021 17.7131 9.01675 17.7131 8.5233C17.6681 8.299 17.5334 8.0747 17.3089 7.94012ZM14.2553 15.3868C14.2553 14.2205 14.2553 13.0541 14.2553 11.8878C14.2553 11.7083 14.2553 11.5738 14.2553 11.3943C14.3002 11.3046 14.3002 11.2149 14.3451 11.1252C14.3451 11.1252 14.3451 11.17 14.3002 11.17C14.3002 11.1252 14.3451 11.0803 14.3451 11.0354C14.3451 10.9906 14.3451 10.9906 14.3451 11.0354C14.39 10.9457 14.4349 10.856 14.4798 10.7663C14.5247 10.6766 14.5696 10.5868 14.6594 10.4971C14.7043 10.4523 14.7492 10.4074 14.7941 10.3625C14.8839 10.2728 14.9738 10.1831 15.0636 10.0934C15.0636 10.0934 15.0636 10.0934 15.1085 10.0485C15.1534 10.0037 15.1983 10.0037 15.2432 9.95881C15.333 9.91395 15.4228 9.82423 15.5575 9.77937C15.6025 9.73451 15.6474 9.73451 15.7372 9.68965C15.7372 9.68965 15.7372 9.68965 15.6923 9.68965C15.7372 9.68965 15.7821 9.64479 15.8719 9.64479C15.8719 11.5289 15.8719 13.4579 15.8719 15.342C15.333 15.3868 14.7941 15.3868 14.2553 15.3868Z" fill="white"/>
</svg>
