<svg width="19" height="22" viewBox="0 0 19 22" fill="none" xmlns="http://www.w3.org/2000/svg">
<path fill-rule="evenodd" clip-rule="evenodd" d="M6.35678 12.8248H12.4761L9.38843 4.37275L6.35678 12.8248ZM14.5713 18.5106L13.5933 15.9404H5.26681L4.28879 18.5666C3.90756 19.5907 3.58155 20.2829 3.31152 20.6414C3.04148 20.9999 2.59899 21.1792 1.98404 21.1792C1.46212 21.1792 1.00147 20.9878 0.600581 20.6066C0.200446 20.2246 0 19.7912 0 19.3071C0 19.028 0.0468968 18.739 0.139934 18.441C0.232971 18.143 0.38652 17.7285 0.600581 17.1975L5.84016 3.89773C5.98917 3.51575 6.16844 3.05737 6.37796 2.52184C6.58748 1.98631 6.81062 1.54154 7.04813 1.18755C7.28564 0.833552 7.59803 0.546877 7.98455 0.328277C8.37107 0.109678 8.84836 0 9.41642 0C9.99355 0 10.4754 0.109678 10.8619 0.328277C11.2484 0.546877 11.5608 0.829014 11.7983 1.17318C12.0358 1.51809 12.2363 1.88797 12.3989 2.28433C12.5623 2.67992 12.7695 3.20865 13.0207 3.86974L18.3714 17.0856C18.7905 18.0916 19 18.823 19 19.2791C19 19.7541 18.8018 20.1898 18.4062 20.5854C18.0106 20.981 17.5333 21.1792 16.9744 21.1792C16.6484 21.1792 16.3692 21.1209 16.1363 21.0045C15.9033 20.888 15.7074 20.7299 15.5493 20.5294C15.3912 20.329 15.221 20.0219 15.0395 19.6074C14.858 19.1929 14.7021 18.8275 14.5713 18.5106Z" fill="black"/>
<path opacity="0.203008" fill-rule="evenodd" clip-rule="evenodd" d="M3.00918 19.6572C2.81327 19.9182 2.47743 20.0445 1.98425 20.0445C1.55916 20.0445 1.1923 19.8917 0.862514 19.577C0.632568 19.3577 0.491121 19.1255 0.424558 18.8751C0.396572 19.0226 0.378418 19.1678 0.378418 19.307C0.378418 19.6867 0.536505 20.0218 0.862514 20.3334C1.1923 20.6481 1.55916 20.8009 1.98425 20.8009C2.47743 20.8009 2.81327 20.6746 3.00918 20.4136C3.25652 20.0846 3.56815 19.4189 3.93501 18.4341L4.87824 15.9009C4.87824 15.9009 3.21189 19.3879 3.00918 19.6572ZM13.9565 15.8306L14.9217 18.3668C15.0503 18.6807 15.2054 19.043 15.3861 19.4545C15.5533 19.838 15.7091 20.1201 15.8468 20.2956C15.9701 20.4522 16.1206 20.574 16.3044 20.6662C16.4844 20.7555 16.7098 20.8009 16.9746 20.8009C17.433 20.8009 17.8142 20.6428 18.1387 20.3175C18.4639 19.9923 18.622 19.6527 18.622 19.279C18.622 19.1822 18.6076 19.0453 18.5706 18.8615C18.5018 19.1058 18.3626 19.3373 18.1387 19.5611C17.8142 19.8864 17.433 20.0445 16.9746 20.0445C16.7098 20.0445 16.4844 19.9991 16.3044 19.9098C16.1206 19.8176 15.9701 19.6958 15.8468 19.5392C15.7091 19.3637 15.5533 19.0816 15.3861 18.6981C15.2054 18.2866 15.0503 17.9243 14.9217 17.6104L13.9565 15.8306Z" fill="url(#paint0_linear_528_167)"/>
<defs>
<linearGradient id="paint0_linear_528_167" x1="9.50022" y1="14.8057" x2="9.50022" y2="20.8009" gradientUnits="userSpaceOnUse">
<stop stop-color="#530804"/>
<stop offset="1" stop-color="#DBB682"/>
</linearGradient>
</defs>
</svg>
