<svg width="24" height="24" viewBox="0 0 24 24" fill="none" xmlns="http://www.w3.org/2000/svg">
<path d="M24 1.49972C24 1.03972 23.7776 0.599717 23.3857 0.319717C22.9938 0.0297171 22.496 -0.0702829 22.0194 0.0497171L7.31862 3.57972C6.61959 3.74972 6.1218 4.34972 6.1218 5.02972V15.4597C5.65578 15.3097 5.16858 15.2097 4.6496 15.2097C2.0865 15.2197 0 17.1897 0 19.6097C0 22.0297 2.0865 23.9997 4.6496 23.9997C7.1068 23.9997 9.09797 22.1897 9.26743 19.9097C9.28862 19.8097 9.29921 19.7097 9.29921 19.6097V6.19972L20.8226 3.42972V11.4597C20.3566 11.3097 19.8694 11.2097 19.3504 11.2097C16.7873 11.2097 14.7008 13.1797 14.7008 15.5997C14.7008 18.0197 16.7873 19.9997 19.3504 19.9997C21.8076 19.9997 23.7988 18.1897 23.9682 15.9097C23.9894 15.8097 24 15.7097 24 15.6097V1.49972Z" fill="black"/>
</svg>
