<svg width="22" height="13" viewBox="0 0 22 13" fill="none" xmlns="http://www.w3.org/2000/svg">
<path d="M8 3C8 1.3 9.3 0 11 0C12.7 0 14 1.3 14 3C14 4.7 12.7 6 11 6C9.3 6 8 4.7 8 3ZM11 8C6.4 8 5 11.3 5 11.3V13H17V11.3C17 11.3 15.6 8 11 8Z" fill="black"/>
<path d="M17.5 5C18.8807 5 20 3.88071 20 2.5C20 1.11929 18.8807 0 17.5 0C16.1193 0 15 1.11929 15 2.5C15 3.88071 16.1193 5 17.5 5Z" fill="black"/>
<path d="M17.5002 7C16.3002 7 15.4002 7.3 14.7002 7.8C17.0002 8.9 17.9002 10.8 17.9002 11V11.1H22.0002V9.8C22.0002 9.7 20.9002 7 17.5002 7Z" fill="black"/>
<path d="M4.5 5C5.88071 5 7 3.88071 7 2.5C7 1.11929 5.88071 0 4.5 0C3.11929 0 2 1.11929 2 2.5C2 3.88071 3.11929 5 4.5 5Z" fill="black"/>
<path d="M4.5 7C5.7 7 6.6 7.3 7.3 7.8C5 8.9 4.1 10.8 4.1 11V11.1H0V9.8C0 9.7 1.1 7 4.5 7Z" fill="black"/>
</svg>
