<svg width="1163" height="109" viewBox="0 0 1163 109" fill="none" xmlns="http://www.w3.org/2000/svg">
<g clip-path="url(#clip0_528_484)">
<rect width="1163" height="109" fill="white"/>
<circle cx="1030" cy="165" r="280" fill="url(#paint0_linear_528_484)"/>
<g filter="url(#filter0_f_528_484)">
<circle cx="809.5" cy="353.5" r="223.5" fill="#DBB682" fill-opacity="0.54"/>
</g>
<g filter="url(#filter1_f_528_484)">
<circle cx="655.5" cy="230.5" r="223.5" fill="#D1A76A" fill-opacity="0.63"/>
</g>
<g filter="url(#filter2_f_528_484)">
<circle cx="47.5" cy="230.5" r="223.5" fill="#D1A76A" fill-opacity="0.63"/>
</g>
</g>
<g clip-path="url(#clip1_528_484)">
<path d="M1111 58.2178C1112.66 58.2178 1114 56.8552 1114 55.1743C1114 53.4935 1112.66 52.1309 1111 52.1309C1109.34 52.1309 1108 53.4935 1108 55.1743C1108 56.8552 1109.34 58.2178 1111 58.2178Z" stroke="white" stroke-width="2" stroke-linecap="round" stroke-linejoin="round"/>
<path d="M1118.4 58.2175C1118.27 58.5235 1118.23 58.863 1118.29 59.1921C1118.34 59.5212 1118.5 59.8248 1118.73 60.0639L1118.79 60.1248C1118.98 60.3132 1119.12 60.537 1119.22 60.7833C1119.32 61.0296 1119.38 61.2937 1119.38 61.5603C1119.38 61.8269 1119.32 62.091 1119.22 62.3373C1119.12 62.5836 1118.98 62.8074 1118.79 62.9958C1118.6 63.1845 1118.38 63.3341 1118.14 63.4362C1117.9 63.5383 1117.64 63.5909 1117.38 63.5909C1117.11 63.5909 1116.85 63.5383 1116.61 63.4362C1116.37 63.3341 1116.15 63.1845 1115.96 62.9958L1115.9 62.9349C1115.66 62.7011 1115.36 62.5442 1115.04 62.4845C1114.72 62.4248 1114.38 62.4651 1114.08 62.6002C1113.78 62.7288 1113.53 62.9423 1113.35 63.2145C1113.18 63.4866 1113.08 63.8056 1113.08 64.132V64.3045C1113.08 64.8426 1112.87 65.3587 1112.49 65.7392C1112.12 66.1197 1111.61 66.3335 1111.08 66.3335C1110.55 66.3335 1110.04 66.1197 1109.67 65.7392C1109.29 65.3587 1109.08 64.8426 1109.08 64.3045V64.2132C1109.07 63.8774 1108.97 63.5517 1108.77 63.2786C1108.58 63.0054 1108.31 62.7973 1108 62.6813C1107.7 62.5463 1107.36 62.506 1107.04 62.5657C1106.72 62.6253 1106.42 62.7822 1106.18 63.0161L1106.12 63.077C1105.93 63.2656 1105.71 63.4153 1105.47 63.5174C1105.23 63.6195 1104.97 63.672 1104.7 63.672C1104.44 63.672 1104.18 63.6195 1103.94 63.5174C1103.7 63.4153 1103.48 63.2656 1103.29 63.077C1103.1 62.8885 1102.96 62.6648 1102.86 62.4184C1102.76 62.1721 1102.7 61.9081 1102.7 61.6415C1102.7 61.3748 1102.76 61.1108 1102.86 60.8645C1102.96 60.6182 1103.1 60.3944 1103.29 60.206L1103.35 60.1451C1103.58 59.906 1103.74 59.6023 1103.79 59.2732C1103.85 58.9441 1103.81 58.6047 1103.68 58.2987C1103.55 57.9987 1103.34 57.7427 1103.07 57.5625C1102.81 57.3822 1102.49 57.2855 1102.17 57.2842H1102C1101.47 57.2842 1100.96 57.0704 1100.59 56.6899C1100.21 56.3094 1100 55.7933 1100 55.2552C1100 54.7171 1100.21 54.201 1100.59 53.8205C1100.96 53.44 1101.47 53.2262 1102 53.2262H1102.09C1102.42 53.2184 1102.74 53.1097 1103.01 52.9143C1103.28 52.7189 1103.49 52.4458 1103.6 52.1306C1103.73 51.8246 1103.77 51.4852 1103.71 51.1561C1103.66 50.827 1103.5 50.5233 1103.27 50.2842L1103.21 50.2233C1103.02 50.0349 1102.88 49.8111 1102.78 49.5648C1102.68 49.3185 1102.62 49.0545 1102.62 48.7878C1102.62 48.5212 1102.68 48.2572 1102.78 48.0109C1102.88 47.7645 1103.02 47.5408 1103.21 47.3523C1103.4 47.1637 1103.62 47.014 1103.86 46.9119C1104.1 46.8098 1104.36 46.7573 1104.62 46.7573C1104.89 46.7573 1105.15 46.8098 1105.39 46.9119C1105.63 47.014 1105.85 47.1637 1106.04 47.3523L1106.1 47.4132C1106.34 47.6471 1106.64 47.804 1106.96 47.8636C1107.28 47.9233 1107.62 47.883 1107.92 47.748H1108C1108.3 47.6194 1108.55 47.4058 1108.73 47.1337C1108.9 46.8615 1109 46.5425 1109 46.2161V46.0436C1109 45.5055 1109.21 44.9894 1109.59 44.6089C1109.96 44.2284 1110.47 44.0146 1111 44.0146C1111.53 44.0146 1112.04 44.2284 1112.41 44.6089C1112.79 44.9894 1113 45.5055 1113 46.0436V46.1349C1113 46.4614 1113.1 46.7803 1113.27 47.0525C1113.45 47.3247 1113.7 47.5382 1114 47.6668C1114.3 47.8019 1114.64 47.8422 1114.96 47.7825C1115.28 47.7228 1115.58 47.5659 1115.82 47.332L1115.88 47.2712C1116.07 47.0825 1116.29 46.9329 1116.53 46.8308C1116.77 46.7287 1117.03 46.6761 1117.3 46.6761C1117.56 46.6761 1117.82 46.7287 1118.06 46.8308C1118.3 46.9329 1118.52 47.0825 1118.71 47.2712C1118.9 47.4596 1119.04 47.6834 1119.14 47.9297C1119.24 48.176 1119.3 48.44 1119.3 48.7067C1119.3 48.9733 1119.24 49.2373 1119.14 49.4837C1119.04 49.73 1118.9 49.9537 1118.71 50.1422L1118.65 50.2031C1118.42 50.4421 1118.26 50.7458 1118.21 51.0749C1118.15 51.404 1118.19 51.7434 1118.32 52.0494V52.1306C1118.45 52.4306 1118.66 52.6866 1118.93 52.8668C1119.19 53.0471 1119.51 53.1438 1119.83 53.1451H1120C1120.53 53.1451 1121.04 53.3589 1121.41 53.7394C1121.79 54.1199 1122 54.6359 1122 55.1741C1122 55.7122 1121.79 56.2283 1121.41 56.6088C1121.04 56.9893 1120.53 57.2031 1120 57.2031H1119.91C1119.59 57.2044 1119.27 57.3011 1119.01 57.4813C1118.74 57.6616 1118.53 57.9175 1118.4 58.2175V58.2175Z" stroke="white" stroke-width="2" stroke-linecap="round" stroke-linejoin="round"/>
</g>
<rect x="40.5" y="34.5" width="408.296" height="39.5797" rx="19.7899" stroke="#C2C2C2"/>
<path fill-rule="evenodd" clip-rule="evenodd" d="M427.719 57.7853C425.073 59.9388 421.2 59.7693 418.748 57.2769C416.116 54.6026 416.116 50.2668 418.748 47.5926C421.379 44.9184 425.646 44.9184 428.277 47.5926C430.73 50.085 430.896 54.0206 428.777 56.7093L433.924 61.9397C434.217 62.2368 434.217 62.7186 433.924 63.0157C433.632 63.3128 433.158 63.3128 432.865 63.0157L427.719 57.7853ZM419.806 56.2009C417.76 54.1209 417.76 50.7486 419.806 48.6686C421.853 46.5887 425.172 46.5887 427.218 48.6686C429.264 50.7471 429.265 54.1159 427.223 56.1963C427.221 56.1978 427.22 56.1993 427.218 56.2008C427.217 56.2024 427.215 56.2039 427.214 56.2054C425.167 58.2808 421.852 58.2793 419.806 56.2009Z" fill="#505050"/>
<path d="M63.7454 50.4182C63.6772 49.8425 63.4007 49.3955 62.9158 49.0773C62.431 48.7591 61.8363 48.6001 61.1317 48.6001C60.6166 48.6001 60.1658 48.6834 59.7795 48.8501C59.3969 49.0167 59.0977 49.2459 58.8817 49.5376C58.6696 49.8292 58.5636 50.1607 58.5636 50.5319C58.5636 50.8425 58.6374 51.1095 58.7852 51.333C58.9367 51.5527 59.1299 51.7364 59.3647 51.8841C59.5996 52.0281 59.8458 52.1474 60.1033 52.2421C60.3609 52.333 60.5977 52.4069 60.8136 52.4637L61.9954 52.7819C62.2984 52.8614 62.6355 52.9713 63.0067 53.1114C63.3817 53.2516 63.7397 53.4429 64.0806 53.6853C64.4253 53.9239 64.7094 54.2307 64.9329 54.6057C65.1564 54.9807 65.2681 55.441 65.2681 55.9864C65.2681 56.6152 65.1033 57.1834 64.7738 57.691C64.448 58.1985 63.9708 58.6019 63.342 58.9012C62.717 59.2004 61.9575 59.3501 61.0636 59.3501C60.2302 59.3501 59.5086 59.2156 58.8988 58.9466C58.2927 58.6777 57.8155 58.3027 57.467 57.8216C57.1223 57.3406 56.9272 56.7819 56.8817 56.1455H58.3363C58.3742 56.5849 58.5219 56.9485 58.7795 57.2364C59.0408 57.5205 59.3704 57.7326 59.7681 57.8728C60.1696 58.0091 60.6014 58.0773 61.0636 58.0773C61.6014 58.0773 62.0844 57.9902 62.5124 57.816C62.9405 57.6379 63.2795 57.3917 63.5295 57.0773C63.7795 56.7591 63.9045 56.3879 63.9045 55.9637C63.9045 55.5773 63.7965 55.2629 63.5806 55.0205C63.3647 54.7781 63.0806 54.5811 62.7283 54.4296C62.3761 54.2781 61.9954 54.1455 61.5863 54.0319L60.1545 53.6228C59.2454 53.3614 58.5257 52.9883 57.9954 52.5035C57.4651 52.0186 57.1999 51.3841 57.1999 50.6001C57.1999 49.9485 57.3761 49.3804 57.7283 48.8955C58.0844 48.4069 58.5617 48.0281 59.1602 47.7591C59.7624 47.4864 60.4348 47.3501 61.1772 47.3501C61.9272 47.3501 62.5939 47.4845 63.1772 47.7535C63.7605 48.0186 64.2227 48.3822 64.5636 48.8444C64.9083 49.3065 65.0901 49.8311 65.109 50.4182H63.7454ZM71.0621 59.3273C70.2212 59.3273 69.4959 59.1417 68.886 58.7705C68.2799 58.3955 67.8121 57.8728 67.4826 57.2023C67.1568 56.5281 66.994 55.744 66.994 54.8501C66.994 53.9561 67.1568 53.1682 67.4826 52.4864C67.8121 51.8008 68.2705 51.2667 68.8576 50.8841C69.4485 50.4978 70.1379 50.3046 70.9258 50.3046C71.3803 50.3046 71.8292 50.3804 72.2724 50.5319C72.7156 50.6834 73.119 50.9296 73.4826 51.2705C73.8462 51.6076 74.136 52.0546 74.3519 52.6114C74.5678 53.1682 74.6758 53.8538 74.6758 54.6682V55.2364H67.9485V54.0773H73.3121C73.3121 53.5849 73.2137 53.1455 73.0167 52.7591C72.8235 52.3728 72.547 52.0679 72.1871 51.8444C71.8311 51.6209 71.4106 51.5091 70.9258 51.5091C70.3917 51.5091 69.9296 51.6417 69.5394 51.9069C69.1531 52.1682 68.8557 52.5091 68.6474 52.9296C68.439 53.3501 68.3349 53.8008 68.3349 54.2819V55.0546C68.3349 55.7137 68.4485 56.2724 68.6758 56.7307C68.9068 57.1853 69.2269 57.5319 69.636 57.7705C70.0451 58.0054 70.5205 58.1228 71.0621 58.1228C71.4144 58.1228 71.7326 58.0735 72.0167 57.9751C72.3046 57.8728 72.5527 57.7213 72.761 57.5205C72.9693 57.316 73.1303 57.0622 73.244 56.7591L74.5394 57.1228C74.4031 57.5622 74.1739 57.9485 73.8519 58.2819C73.5299 58.6114 73.1322 58.869 72.6587 59.0546C72.1853 59.2364 71.6531 59.3273 71.0621 59.3273ZM79.2837 59.3501C78.7307 59.3501 78.2288 59.2459 77.7781 59.0376C77.3273 58.8254 76.9693 58.5205 76.7042 58.1228C76.439 57.7213 76.3065 57.2364 76.3065 56.6682C76.3065 56.1682 76.4049 55.7629 76.6019 55.4523C76.7989 55.1379 77.0621 54.8917 77.3917 54.7137C77.7212 54.5357 78.0849 54.4031 78.4826 54.316C78.8841 54.2251 79.2875 54.1531 79.6928 54.1001C80.2231 54.0319 80.6531 53.9807 80.9826 53.9466C81.3159 53.9088 81.5584 53.8463 81.7099 53.7591C81.8652 53.672 81.9428 53.5205 81.9428 53.3046V53.2591C81.9428 52.6985 81.7894 52.2629 81.4826 51.9523C81.1796 51.6417 80.7193 51.4864 80.1019 51.4864C79.4618 51.4864 78.9599 51.6266 78.5962 51.9069C78.2326 52.1872 77.9769 52.4864 77.8292 52.8046L76.5565 52.3501C76.7837 51.8197 77.0868 51.4069 77.4656 51.1114C77.8481 50.8122 78.2648 50.6038 78.7156 50.4864C79.1701 50.3652 79.6171 50.3046 80.0565 50.3046C80.3368 50.3046 80.6587 50.3387 81.0224 50.4069C81.3898 50.4713 81.744 50.6057 82.0849 50.8103C82.4296 51.0148 82.7156 51.3235 82.9428 51.7364C83.1701 52.1493 83.2837 52.7023 83.2837 53.3955V59.1455H81.9428V57.9637H81.8746C81.7837 58.1531 81.6322 58.3557 81.4201 58.5716C81.208 58.7876 80.9258 58.9713 80.5735 59.1228C80.2212 59.2743 79.7913 59.3501 79.2837 59.3501ZM79.4883 58.1455C80.0186 58.1455 80.4656 58.0413 80.8292 57.833C81.1966 57.6247 81.4731 57.3557 81.6587 57.0262C81.8481 56.6966 81.9428 56.3501 81.9428 55.9864V54.7591C81.886 54.8273 81.761 54.8898 81.5678 54.9466C81.3784 54.9997 81.1587 55.047 80.9087 55.0887C80.6625 55.1266 80.422 55.1607 80.1871 55.191C79.9561 55.2175 79.7686 55.2402 79.6246 55.2591C79.2762 55.3046 78.9504 55.3785 78.6474 55.4807C78.3481 55.5792 78.1057 55.7288 77.9201 55.9296C77.7383 56.1266 77.6474 56.3955 77.6474 56.7364C77.6474 57.2023 77.8197 57.5546 78.1644 57.7932C78.5129 58.0281 78.9542 58.1455 79.4883 58.1455ZM85.7312 59.1455V50.4182H87.0266V51.7364H87.1175C87.2766 51.3046 87.5645 50.9542 87.9812 50.6853C88.3978 50.4163 88.8675 50.2819 89.3903 50.2819C89.4888 50.2819 89.6119 50.2838 89.7596 50.2876C89.9073 50.2913 90.0191 50.297 90.0948 50.3046V51.6682C90.0494 51.6569 89.9452 51.6398 89.7823 51.6171C89.6232 51.5906 89.4547 51.5773 89.2766 51.5773C88.8524 51.5773 88.4736 51.6663 88.1403 51.8444C87.8107 52.0186 87.5494 52.261 87.3562 52.5716C87.1668 52.8785 87.0721 53.2288 87.0721 53.6228V59.1455H85.7312ZM94.9641 59.3273C94.146 59.3273 93.4414 59.1341 92.8505 58.7478C92.2596 58.3614 91.805 57.8292 91.4869 57.1512C91.1687 56.4732 91.0096 55.6985 91.0096 54.8273C91.0096 53.941 91.1725 53.1588 91.4982 52.4807C91.8278 51.7989 92.2861 51.2667 92.8732 50.8841C93.4641 50.4978 94.1535 50.3046 94.9414 50.3046C95.555 50.3046 96.1081 50.4182 96.6005 50.6455C97.0929 50.8728 97.4963 51.191 97.8107 51.6001C98.1251 52.0091 98.3202 52.4864 98.396 53.0319H97.055C96.9528 52.6341 96.7255 52.2819 96.3732 51.9751C96.0247 51.6644 95.555 51.5091 94.9641 51.5091C94.4414 51.5091 93.9831 51.6455 93.5891 51.9182C93.199 52.1872 92.8941 52.5679 92.6744 53.0603C92.4585 53.5489 92.3505 54.1228 92.3505 54.7819C92.3505 55.4561 92.4566 56.0432 92.6687 56.5432C92.8846 57.0432 93.1876 57.4315 93.5778 57.708C93.9717 57.9845 94.4338 58.1228 94.9641 58.1228C95.3126 58.1228 95.6289 58.0622 95.913 57.941C96.1971 57.8198 96.4376 57.6455 96.6346 57.4182C96.8316 57.191 96.9717 56.9182 97.055 56.6001H98.396C98.3202 57.1152 98.1327 57.5792 97.8335 57.9921C97.538 58.4012 97.146 58.7269 96.6573 58.9694C96.1725 59.208 95.6081 59.3273 94.9641 59.3273ZM101.697 53.8955V59.1455H100.356V47.5091H101.697V51.7819H101.811C102.015 51.3311 102.322 50.9732 102.731 50.708C103.144 50.4391 103.693 50.3046 104.379 50.3046C104.974 50.3046 105.494 50.4239 105.941 50.6626C106.388 50.8974 106.735 51.2591 106.981 51.7478C107.231 52.2326 107.356 52.8501 107.356 53.6001V59.1455H106.015V53.691C106.015 52.9978 105.835 52.4618 105.475 52.083C105.119 51.7004 104.625 51.5091 103.993 51.5091C103.553 51.5091 103.159 51.6019 102.811 51.7876C102.466 51.9732 102.193 52.244 101.993 52.6001C101.796 52.9561 101.697 53.3879 101.697 53.8955Z" fill="black" fill-opacity="0.5"/>
<defs>
<filter id="filter0_f_528_484" x="387" y="-69" width="845" height="845" filterUnits="userSpaceOnUse" color-interpolation-filters="sRGB">
<feFlood flood-opacity="0" result="BackgroundImageFix"/>
<feBlend mode="normal" in="SourceGraphic" in2="BackgroundImageFix" result="shape"/>
<feGaussianBlur stdDeviation="99.5" result="effect1_foregroundBlur_528_484"/>
</filter>
<filter id="filter1_f_528_484" x="233" y="-192" width="845" height="845" filterUnits="userSpaceOnUse" color-interpolation-filters="sRGB">
<feFlood flood-opacity="0" result="BackgroundImageFix"/>
<feBlend mode="normal" in="SourceGraphic" in2="BackgroundImageFix" result="shape"/>
<feGaussianBlur stdDeviation="99.5" result="effect1_foregroundBlur_528_484"/>
</filter>
<filter id="filter2_f_528_484" x="-375" y="-192" width="845" height="845" filterUnits="userSpaceOnUse" color-interpolation-filters="sRGB">
<feFlood flood-opacity="0" result="BackgroundImageFix"/>
<feBlend mode="normal" in="SourceGraphic" in2="BackgroundImageFix" result="shape"/>
<feGaussianBlur stdDeviation="99.5" result="effect1_foregroundBlur_528_484"/>
</filter>
<linearGradient id="paint0_linear_528_484" x1="1059" y1="-174.5" x2="1048" y2="445" gradientUnits="userSpaceOnUse">
<stop offset="0.0157235" stop-color="#530804"/>
<stop offset="0.323015" stop-color="#530804" stop-opacity="0.87"/>
<stop offset="1" stop-color="#DBB682" stop-opacity="0.45"/>
</linearGradient>
<clipPath id="clip0_528_484">
<rect width="1163" height="109" fill="white"/>
</clipPath>
<clipPath id="clip1_528_484">
<rect width="24" height="24.3478" fill="white" transform="translate(1099 43)"/>
</clipPath>
</defs>
</svg>
