<svg width="24" height="24" viewBox="0 0 24 24" fill="none" xmlns="http://www.w3.org/2000/svg">
<g clip-path="url(#clip0_551_1296)">
<path d="M12 20.25C11.8275 20.25 11.6543 20.1908 11.514 20.0715C11.3325 19.917 7.0575 16.2465 5.274 12.243C5.10525 11.865 5.2755 11.421 5.65425 11.253C6.0315 11.085 6.4755 11.2545 6.64425 11.6332C7.9485 14.562 10.827 17.4075 11.9872 18.4808C14.0347 16.4933 18 12.0517 18 9.1725C18 5.769 15.3082 3 12 3C8.69175 3 6 5.769 6 9.1725C6 9.5865 5.664 9.9225 5.25 9.9225C4.836 9.9225 4.5 9.5865 4.5 9.1725C4.5 4.94175 7.8645 1.5 12 1.5C16.1355 1.5 19.5 4.94175 19.5 9.1725C19.5 13.6065 12.792 19.7917 12.5062 20.0535C12.363 20.184 12.1815 20.25 12 20.25Z" fill="black"/>
<path d="M12 12C10.3455 12 9 10.6545 9 9C9 7.3455 10.3455 6 12 6C13.6545 6 15 7.3455 15 9C15 10.6545 13.6545 12 12 12ZM12 7.5C11.1727 7.5 10.5 8.17275 10.5 9C10.5 9.82725 11.1727 10.5 12 10.5C12.8273 10.5 13.5 9.82725 13.5 9C13.5 8.17275 12.8273 7.5 12 7.5Z" fill="black"/>
<path d="M21.75 22.5001H2.25C1.983 22.5001 1.7355 22.3583 1.60125 22.1266C1.467 21.8948 1.46625 21.6106 1.599 21.3781L4.599 16.1281C4.8045 15.7688 5.26275 15.6428 5.622 15.8491C5.98125 16.0546 6.1065 16.5128 5.901 16.8721L3.54225 21.0001H20.457L18.0983 16.8721C17.8928 16.5128 18.018 16.0546 18.3773 15.8491C18.7365 15.6421 19.1948 15.7688 19.4003 16.1281L22.4003 21.3781C22.533 21.6106 22.5323 21.8948 22.398 22.1266C22.2645 22.3583 22.017 22.5001 21.75 22.5001Z" fill="black"/>
</g>
<defs>
<clipPath id="clip0_551_1296">
<rect width="24" height="24" fill="white"/>
</clipPath>
</defs>
</svg>
