<svg width="25" height="24" viewBox="0 0 25 24" fill="none" xmlns="http://www.w3.org/2000/svg">
<g opacity="0.72">
<path d="M8.03535 11.37C7.62944 11.2372 7.30472 11.0114 7.06118 10.6926C6.81764 10.3472 6.68233 9.97533 6.65527 9.57685C6.65527 9.17837 6.76351 8.79317 6.98 8.42125C7.22354 8.02277 7.58885 7.6907 8.07594 7.42505C8.86069 7 9.53719 6.89374 10.1055 7.10626C10.7008 7.31879 11.1337 7.63757 11.4044 8.06262C11.5397 8.27514 11.6344 8.56736 11.6885 8.93928C11.7697 9.28463 11.7967 9.66983 11.7697 10.0949C11.7697 10.4934 11.7291 10.8918 11.6479 11.2903C11.5667 11.6888 11.4449 12.0209 11.2826 12.2865C11.1473 12.4991 10.9849 12.7116 10.7955 12.9241C10.6331 13.1101 10.4302 13.296 10.1866 13.482C9.97016 13.6679 9.71308 13.8406 9.41542 14L7.95417 13.8805C8.14359 13.6679 8.31948 13.482 8.48184 13.3226C8.6442 13.1366 8.7795 12.9772 8.88775 12.8444C8.99599 12.7116 9.10423 12.592 9.21247 12.4858C9.37483 12.2998 9.51013 12.1139 9.61837 11.9279C9.72661 11.7685 9.82133 11.6091 9.90251 11.4497C9.98369 11.2638 9.99722 11.0778 9.9431 10.8918C9.72661 11.1044 9.51013 11.2505 9.29365 11.3302C9.07717 11.4099 8.87422 11.4497 8.68479 11.4497C8.46831 11.4763 8.25183 11.4497 8.03535 11.37ZM13.6368 11.1309C13.258 10.945 12.9738 10.6793 12.7844 10.334C12.6221 9.96205 12.5679 9.57685 12.6221 9.17837C12.6762 8.77989 12.8385 8.40797 13.1091 8.06262C13.3798 7.71727 13.7857 7.45161 14.3269 7.26565C15.1657 6.97343 15.8558 6.98672 16.397 7.3055C16.9382 7.62429 17.317 8.00949 17.5335 8.4611C17.6147 8.70019 17.6553 9.00569 17.6553 9.37761C17.6553 9.74953 17.6147 10.1347 17.5335 10.5332C17.4523 10.9317 17.3305 11.3169 17.1682 11.6888C17.0329 12.0607 16.8705 12.3662 16.6811 12.6053C16.5187 12.7913 16.3293 12.9639 16.1128 13.1233C15.9234 13.2562 15.6934 13.4023 15.4228 13.5617C15.1793 13.7211 14.8951 13.8539 14.5704 13.9602L13.1497 13.6414C13.3662 13.4554 13.5556 13.296 13.718 13.1632C13.9074 13.0038 14.0698 12.871 14.2051 12.7647C14.3404 12.6584 14.4757 12.5655 14.611 12.4858C14.8004 12.3264 14.9628 12.167 15.0981 12.0076C15.2334 11.8748 15.3416 11.7287 15.4228 11.5693C15.531 11.3833 15.5852 11.1841 15.5852 10.9715C15.3687 11.1575 15.1387 11.277 14.8951 11.3302C14.6786 11.3567 14.4757 11.3567 14.2863 11.3302C14.0698 11.3036 13.8533 11.2372 13.6368 11.1309Z" fill="white"/>
<path d="M17.1553 18.4297H13.1553L8.70526 21.3897C8.04526 21.8297 7.15527 21.3597 7.15527 20.5597V18.4297C4.15527 18.4297 2.15527 16.4297 2.15527 13.4297V7.42969C2.15527 4.42969 4.15527 2.42969 7.15527 2.42969H17.1553C20.1553 2.42969 22.1553 4.42969 22.1553 7.42969V13.4297C22.1553 16.4297 20.1553 18.4297 17.1553 18.4297Z" stroke="white" stroke-width="1.5" stroke-miterlimit="10" stroke-linecap="round" stroke-linejoin="round"/>
</g>
</svg>
