<svg width="49" height="48" viewBox="0 0 49 48" fill="none" xmlns="http://www.w3.org/2000/svg">
<rect x="0.583496" width="48" height="48" rx="24" fill="url(#paint0_linear_541_906)"/>
<path d="M23.2335 31.11V16.89C23.2335 15.54 22.6635 15 21.2235 15H17.5935C16.1535 15 15.5835 15.54 15.5835 16.89V31.11C15.5835 32.46 16.1535 33 17.5935 33H21.2235C22.6635 33 23.2335 32.46 23.2335 31.11Z" fill="#121212"/>
<path d="M33.5836 31.11V16.89C33.5836 15.54 33.0136 15 31.5736 15H27.9436C26.5136 15 25.9336 15.54 25.9336 16.89V31.11C25.9336 32.46 26.5036 33 27.9436 33H31.5736C33.0136 33 33.5836 32.46 33.5836 31.11Z" fill="#121212"/>
<defs>
<linearGradient id="paint0_linear_541_906" x1="44.0835" y1="7.49999" x2="-48.9165" y2="110" gradientUnits="userSpaceOnUse">
<stop stop-color="white"/>
<stop offset="1" stop-color="white" stop-opacity="0"/>
</linearGradient>
</defs>
</svg>
