<svg width="25" height="24" viewBox="0 0 25 24" fill="none" xmlns="http://www.w3.org/2000/svg">
<path d="M4.4935 17.1804C4.3035 17.1804 4.1135 17.1104 3.9635 16.9604C2.5935 15.5804 1.8335 13.7604 1.8335 11.8304C1.8335 7.82042 5.0835 4.56042 9.0835 4.56042L15.1535 4.58042L14.0635 3.54042C13.7635 3.25042 13.7535 2.78042 14.0435 2.48042C14.3335 2.18042 14.8035 2.17042 15.1035 2.46042L17.5435 4.80042C17.7635 5.01042 17.8335 5.34042 17.7235 5.62042C17.6135 5.90042 17.3335 6.09042 17.0235 6.09042L9.0835 6.07042C5.9135 6.07042 3.3335 8.66042 3.3335 11.8404C3.3335 13.3704 3.9335 14.8204 5.0235 15.9104C5.3135 16.2004 5.3135 16.6804 5.0235 16.9704C4.8735 17.1104 4.6835 17.1804 4.4935 17.1804Z" fill="white"/>
<path d="M10.5834 21.75C10.3934 21.75 10.2134 21.68 10.0634 21.54L7.6234 19.2C7.4034 18.99 7.3334 18.66 7.4434 18.38C7.5634 18.1 7.8434 17.95 8.1434 17.91L16.0934 17.93C19.2634 17.93 21.8434 15.34 21.8434 12.16C21.8434 10.63 21.2434 9.18 20.1534 8.09C19.8634 7.8 19.8634 7.32 20.1534 7.03C20.4434 6.74 20.9234 6.74 21.2134 7.03C22.5834 8.41 23.3434 10.23 23.3434 12.16C23.3434 16.17 20.0934 19.43 16.0934 19.43L10.0234 19.41L11.1134 20.45C11.4134 20.74 11.4234 21.21 11.1334 21.51C10.9734 21.67 10.7834 21.75 10.5834 21.75Z" fill="white"/>
</svg>
