<svg width="19" height="18" viewBox="0 0 19 18" fill="none" xmlns="http://www.w3.org/2000/svg">
<path fill-rule="evenodd" clip-rule="evenodd" d="M11.7186 12.4456C9.0729 14.5682 5.20013 14.4011 2.74756 11.9444C0.116047 9.30832 0.116047 5.03445 2.74756 2.39842C5.37907 -0.237623 9.6456 -0.237623 12.2771 2.39842C14.7297 4.8552 14.8965 8.73462 12.7775 11.3849L17.9242 16.5405C18.2166 16.8334 18.2166 17.3083 17.9242 17.6012C17.6318 17.8941 17.1578 17.8941 16.8654 17.6012L11.7186 12.4456ZM3.8064 10.8837C1.75967 8.83344 1.75967 5.50933 3.8064 3.45908C5.85313 1.40882 9.17154 1.40882 11.2183 3.45908C13.2635 5.50782 13.265 8.82856 11.2228 10.8792C11.2213 10.8807 11.2198 10.8822 11.2183 10.8837C11.2168 10.8852 11.2153 10.8867 11.2138 10.8882C9.16668 12.9339 5.85163 12.9324 3.8064 10.8837Z" fill="#505050"/>
</svg>
