<svg width="25" height="24" viewBox="0 0 25 24" fill="none" xmlns="http://www.w3.org/2000/svg">
<path opacity="0.4" d="M22.3337 17.9799C22.3337 17.9599 22.3237 17.9399 22.3237 17.9199C22.3137 17.8399 22.3037 17.7599 22.2737 17.6899C22.2337 17.5999 22.1837 17.5299 22.1237 17.4599C22.1237 17.4599 22.1237 17.4499 22.1137 17.4499C22.0437 17.3799 21.9637 17.3299 21.8737 17.2899C21.7837 17.2499 21.6837 17.2299 21.5837 17.2299L16.9137 17.2499C16.9137 17.2499 16.9137 17.2499 16.9037 17.2499C16.3037 17.2499 15.7237 16.9699 15.3637 16.4899L14.1437 14.9199C13.8937 14.5899 13.4237 14.5299 13.0937 14.7899C12.7637 15.0499 12.7037 15.5099 12.9637 15.8399L14.1837 17.4099C14.8337 18.2499 15.8537 18.7499 16.9137 18.7499H16.9237L19.7737 18.7399L19.0637 19.4499C18.7737 19.7399 18.7737 20.2199 19.0637 20.5099C19.2137 20.6599 19.4037 20.7299 19.5937 20.7299C19.7837 20.7299 19.9737 20.6599 20.1237 20.5099L22.1237 18.5099C22.1937 18.4399 22.2437 18.3599 22.2837 18.2699C22.3137 18.1699 22.3337 18.0699 22.3337 17.9799Z" fill="white"/>
<path opacity="0.4" d="M9.00327 6.68976C8.35327 5.78976 7.31325 5.25977 6.20325 5.25977C6.19325 5.25977 6.19326 5.25977 6.18326 5.25977L3.57324 5.26978C3.16324 5.26978 2.82324 5.60978 2.82324 6.01978C2.82324 6.42978 3.16324 6.76978 3.57324 6.76978L6.18326 6.75977H6.19324C6.82324 6.75977 7.41325 7.05976 7.77325 7.56976L8.85324 9.06976C9.00324 9.26976 9.23326 9.37976 9.46326 9.37976C9.61326 9.37976 9.77326 9.32975 9.90326 9.23975C10.2433 8.99975 10.3132 8.52976 10.0732 8.18976L9.00327 6.68976Z" fill="white"/>
<path d="M22.3232 6.07974C22.3232 6.05974 22.3333 6.03976 22.3333 6.02976C22.3333 5.92976 22.3133 5.82972 22.2733 5.73972C22.2333 5.64972 22.1833 5.56973 22.1133 5.49973L20.1133 3.49973C19.8232 3.20973 19.3433 3.20973 19.0533 3.49973C18.7633 3.78973 18.7633 4.26972 19.0533 4.55972L19.7632 5.26975L17.0333 5.25974C17.0233 5.25974 17.0232 5.25974 17.0132 5.25974C15.8632 5.25974 14.7832 5.82971 14.1432 6.79971L7.75327 16.3797C7.39327 16.9197 6.78324 17.2497 6.13324 17.2497H6.12326L3.57324 17.2397C3.16324 17.2397 2.82324 17.5697 2.82324 17.9897C2.82324 18.3997 3.15324 18.7397 3.57324 18.7397L6.12326 18.7497C6.13326 18.7497 6.13325 18.7497 6.14325 18.7497C7.30325 18.7497 8.37324 18.1797 9.01324 17.2097L15.4033 7.62973C15.7633 7.08973 16.3733 6.75974 17.0233 6.75974H17.0333L21.5833 6.77976C21.6833 6.77976 21.7733 6.7597 21.8733 6.7197C21.9633 6.6797 22.0433 6.62972 22.1133 6.55972C22.1133 6.55972 22.1133 6.54971 22.1233 6.54971C22.1833 6.47971 22.2433 6.40973 22.2733 6.31973C22.3033 6.23973 22.3132 6.15974 22.3232 6.07974Z" fill="white"/>
</svg>
