<svg width="25" height="24" viewBox="0 0 25 24" fill="none" xmlns="http://www.w3.org/2000/svg">
<path d="M18.1551 16.7503C17.9951 16.7503 17.8451 16.7003 17.7051 16.6003C17.3751 16.3503 17.3051 15.8803 17.5551 15.5503C19.1251 13.4603 19.1251 10.5403 17.5551 8.45027C17.3051 8.12027 17.3751 7.65027 17.7051 7.40027C18.0351 7.15027 18.5051 7.22027 18.7551 7.55027C20.7151 10.1703 20.7151 13.8303 18.7551 16.4503C18.6051 16.6503 18.3851 16.7503 18.1551 16.7503Z" fill="white"/>
<path d="M19.9851 19.2503C19.8251 19.2503 19.6751 19.2003 19.5351 19.1003C19.2051 18.8503 19.1351 18.3803 19.3851 18.0503C22.0551 14.4903 22.0551 9.51027 19.3851 5.95027C19.1351 5.62027 19.2051 5.15027 19.5351 4.90027C19.8651 4.65027 20.3351 4.72027 20.5851 5.05027C23.6551 9.14027 23.6551 14.8603 20.5851 18.9503C20.4451 19.1503 20.2151 19.2503 19.9851 19.2503Z" fill="white"/>
<path opacity="0.4" d="M15.9053 7.40972V16.5897C15.9053 18.3097 15.2853 19.5997 14.1753 20.2197C13.7253 20.4697 13.2253 20.5897 12.7053 20.5897C11.9053 20.5897 11.0453 20.3197 10.1653 19.7697L7.24527 17.9397C7.04527 17.8197 6.81527 17.7497 6.58527 17.7497H5.65527V6.24972H6.58527C6.81527 6.24972 7.04527 6.17972 7.24527 6.05972L10.1653 4.22972C11.6253 3.31972 13.0553 3.15972 14.1753 3.77972C15.2853 4.39972 15.9053 5.68972 15.9053 7.40972Z" fill="white"/>
<path d="M5.65527 6.25V17.75H5.15527C2.73527 17.75 1.40527 16.42 1.40527 14V10C1.40527 7.58 2.73527 6.25 5.15527 6.25H5.65527Z" fill="white"/>
</svg>
